<svg width="15" height="15" viewBox="0 0 15 15" fill="none" xmlns="http://www.w3.org/2000/svg">
<path d="M7.49999 7.14486e-06C6.01619 8.55633e-06 4.56573 0.440138 3.33214 1.26471C2.09855 2.08927 1.13727 3.26122 0.569915 4.63227C0.00256351 6.00332 -0.145356 7.51185 0.144872 8.96699C0.435101 10.4221 1.15043 11.7585 2.20036 12.807C3.25029 13.8554 4.58763 14.5689 6.04317 14.8571C7.4987 15.1454 9.00703 14.9954 10.3773 14.4261C11.7476 13.8569 12.9182 12.894 13.741 11.6592C14.5639 10.4245 15.002 8.97345 15 7.48966C15 6.50523 14.8059 5.53046 14.4289 4.6211C14.0518 3.71174 13.4992 2.88563 12.8027 2.19001C12.1061 1.4944 11.2792 0.942932 10.3693 0.567151C9.45945 0.19137 8.48442 -0.00135256 7.49999 7.14486e-06V7.14486e-06ZM8.9793 5.71035V6.96207H6.46551C6.46551 7.1069 6.46551 7.25173 6.46551 7.4069V7.77931H8.9793V9.03103H6.55861C6.75516 10.3448 7.25172 10.9759 8.08965 10.9759C8.37735 10.9818 8.65803 10.8867 8.88292 10.7072C9.10781 10.5276 9.2627 10.275 9.32068 9.9931H11.4931C11.3707 10.7925 10.9535 11.5172 10.3236 12.0246C9.69374 12.5319 8.89683 12.7851 8.08965 12.7345C6.02068 12.7345 4.7793 11.3897 4.41723 9.03103H3.51724V7.77931H4.31379C4.31379 7.68621 4.31379 7.5931 4.31379 7.48966C4.31379 7.38621 4.31379 7.13793 4.31379 6.96207H3.51724V5.71035H4.4793C4.94482 3.49656 6.26896 2.25518 8.15171 2.25518C8.95575 2.18813 9.75429 2.43685 10.3781 2.94861C11.0018 3.46036 11.4018 4.19492 11.4931 4.99655H9.32068C9.26184 4.69733 9.09833 4.42886 8.85946 4.23928C8.62059 4.0497 8.322 3.95142 8.01723 3.96207C7.19999 3.96207 6.73447 4.56207 6.53792 5.73104L8.9793 5.71035Z" fill="#AAAAAA"/>
</svg>
