<svg width="16" height="13" viewBox="0 0 16 13" fill="none" xmlns="http://www.w3.org/2000/svg">
<g clip-path="url(#clip0_467_2932)">
<path d="M1.53 3.06C2.375 3.06 3.06 2.375 3.06 1.53C3.06 0.685004 2.375 0 1.53 0C0.685004 0 0 0.685004 0 1.53C0 2.375 0.685004 3.06 1.53 3.06Z" fill="#AAAAAA"/>
<path d="M1.53 7.93C2.375 7.93 3.06 7.24499 3.06 6.4C3.06 5.555 2.375 4.87 1.53 4.87C0.685004 4.87 0 5.555 0 6.4C0 7.24499 0.685004 7.93 1.53 7.93Z" fill="#AAAAAA"/>
<path d="M1.53 12.8C2.375 12.8 3.06 12.115 3.06 11.27C3.06 10.425 2.375 9.74001 1.53 9.74001C0.685004 9.74001 0 10.425 0 11.27C0 12.115 0.685004 12.8 1.53 12.8Z" fill="#AAAAAA"/>
<path d="M16.0001 0.380005H5.11011V2.67H16.0001V0.380005Z" fill="#AAAAAA"/>
<path d="M16.0001 5.25H5.11011V7.54H16.0001V5.25Z" fill="#AAAAAA"/>
<path d="M16.0001 10.13H5.11011V12.42H16.0001V10.13Z" fill="#AAAAAA"/>
</g>
<defs>
<clipPath id="clip0_467_2932">
<rect width="16" height="12.8" fill="white"/>
</clipPath>
</defs>
</svg>
