<svg width="19" height="17" viewBox="0 0 19 17" fill="none" xmlns="http://www.w3.org/2000/svg">
<path d="M13.5696 8.28723C15.2962 8.28723 16.6958 6.88756 16.6958 5.16098C16.6958 3.43441 15.2962 2.03474 13.5696 2.03474C11.843 2.03474 10.4434 3.43441 10.4434 5.16098C10.4434 6.88756 11.843 8.28723 13.5696 8.28723Z" fill="#AAAAAA"/>
<path d="M14.3779 9.80993H12.7475C11.9317 9.80643 11.1304 10.0254 10.4297 10.4433C10.0616 9.64066 9.47126 8.96031 8.72858 8.4827C7.98589 8.00509 7.12194 7.75021 6.23894 7.74823H4.60844C3.99983 7.74821 3.39724 7.86874 2.83546 8.10286C2.27367 8.33698 1.76383 8.68006 1.33536 9.11229C0.906886 9.54452 0.568272 10.0573 0.339064 10.6211C0.109856 11.185 -0.00540554 11.7886 -6.68176e-05 12.3972V14.0277H8.15242C8.15242 14.1624 8.15242 14.2972 8.15242 14.4319V16.0624H18.9999V14.4319C18.9999 13.2061 18.513 12.0305 17.6462 11.1637C16.7794 10.2969 15.6038 9.80993 14.3779 9.80993V9.80993Z" fill="#AAAAAA"/>
<path d="M5.43044 6.25248C7.15701 6.25248 8.55668 4.85282 8.55668 3.12624C8.55668 1.39967 7.15701 0 5.43044 0C3.70386 0 2.3042 1.39967 2.3042 3.12624C2.3042 4.85282 3.70386 6.25248 5.43044 6.25248Z" fill="#AAAAAA"/>
</svg>
