<svg width="13" height="13" viewBox="0 0 13 13" fill="none" xmlns="http://www.w3.org/2000/svg">
<g clip-path="url(#clip0_467_2928)">
<path d="M6.73485 0.0011576C5.45045 -0.0446494 4.1813 0.291332 3.0878 0.966637C1.99431 1.64194 1.12555 2.62626 0.591324 3.79518C0.0571008 4.9641 -0.118605 6.26516 0.0864139 7.53392C0.291433 8.80267 0.867973 9.98217 1.74317 10.9233C2.61836 11.8645 3.75293 12.5251 5.00346 12.8217C6.254 13.1182 7.56438 13.0373 8.76898 12.5893C9.97358 12.1413 11.0183 11.3463 11.7712 10.3047C12.5241 9.26303 12.9512 8.0216 12.9987 6.73727C13.0551 5.01504 12.4282 3.34038 11.2548 2.0785C10.0814 0.816626 8.45663 0.0698947 6.73485 0.0011576ZM6.34596 10.6539L2.42929 6.48727L5.08207 6.58449L5.23485 2.33449L8.01263 2.4456L7.9154 6.64005L10.5543 6.73727L6.34596 10.6539Z" fill="#AAAAAA"/>
</g>
<defs>
<clipPath id="clip0_467_2928">
<rect width="13" height="13" fill="white"/>
</clipPath>
</defs>
</svg>
