<svg width="12" height="15" viewBox="0 0 12 15" fill="none" xmlns="http://www.w3.org/2000/svg">
<g clip-path="url(#clip0_467_2873)">
<path d="M5.80078 6.67774C7.64479 6.67774 9.13966 5.18288 9.13966 3.33887C9.13966 1.49486 7.64479 0 5.80078 0C3.95678 0 2.46191 1.49486 2.46191 3.33887C2.46191 5.18288 3.95678 6.67774 5.80078 6.67774Z" fill="#AAAAAA"/>
<path d="M6.67774 8.31229H4.98339C3.6703 8.31223 2.41025 8.83042 1.4771 9.75423C0.543956 10.678 0.0131309 11.9328 0 13.2458L0 15H11.6113V13.2458C11.5983 11.9414 11.0744 10.6941 10.1519 9.77165C9.22952 8.84923 7.98218 8.32527 6.67774 8.31229Z" fill="#AAAAAA"/>
</g>
<defs>
<clipPath id="clip0_467_2873">
<rect width="11.6113" height="15" fill="white"/>
</clipPath>
</defs>
</svg>
